<?xml version="1.0" encoding="utf-8" ?><svg xmlns="http://www.w3.org/2000/svg" xmlns:xlink="http://www.w3.org/1999/xlink" width="1278" height="1278" viewBox="0 0 1278 1278"><path fill="white" transform="scale(1.24789 1.24789)" d="M0 0L1024 0L1024 1024L0 1024L0 0Z"/><path fill="#111" transform="scale(1.24789 1.24789)" d="M103.6 815.001C108.268 805.286 112.7 794.6 117.234 784.692L157.755 695.256L273.287 439.85C280.812 423.489 287.6 406.66 295.202 390.323C310.751 356.906 323.705 321.831 345.372 291.738C366.753 261.667 395.97 238.036 429.847 223.415C472.935 205.471 521.394 205.42 564.52 223.275C597.335 236.487 625.437 259.823 646.583 288.034C665.903 313.808 676.63 343.27 689.872 372.421C698.168 390.685 706.482 409.067 714.662 427.369C744.259 492.794 773.452 558.402 802.239 624.187L801.541 624.992C797.225 615.467 791.44 605.787 786.652 596.513C767.188 558.206 744.136 522.411 718.398 488.163C684.743 443.382 640.789 406.479 581.731 406.234C538.843 406.056 500.048 426.186 473.904 459.912C458.749 479.463 449.44 504.488 439.171 527.028L394.805 623.824C372.751 672.393 356.248 720.097 317.471 758.424C285.309 790.211 243.146 809.901 198.127 814.158C185.752 815.391 171.822 815.016 159.217 815.029L103.6 815.001Z"/><path fill="#111" transform="scale(1.24789 1.24789)" d="M471.947 645.452C509.169 644.947 547.536 645.399 584.83 645.395L640.515 645.401C676.971 645.426 704.694 645.322 739.974 656.874C804.35 677.954 849.316 729.358 877.997 789.011C882.135 797.618 885.604 806.387 889.963 814.96C870.649 815.431 849.676 815.003 830.212 815.007L711.744 814.964L640.468 814.985C626.844 815.001 612.996 815.339 599.431 814.641C573.53 813.31 550.63 797.935 535.311 777.693C526.303 765.789 521.692 753.946 515.526 740.564C509.819 728.264 504.173 715.935 498.589 703.578C489.915 684.405 480.181 664.568 471.947 645.452Z"/><path fill="#A6A6A8" transform="scale(1.24789 1.24789)" d="M803.737 627.791C804.597 629.468 805.919 632.685 806.388 634.563L806.288 634.574L806.288 634.646L806.238 634.675C805.698 634.516 803.177 628.792 802.905 628.086L803.737 627.791Z"/><path fill="#3B3C3D" transform="scale(1.24789 1.24789)" d="M802.239 624.187L802.579 625C802.98 625.924 803.356 626.858 803.737 627.791L802.905 628.086C802.47 627 802.023 626.051 801.541 624.992L802.239 624.187Z"/></svg>