<?xml version="1.0" encoding="utf-8" ?><svg xmlns="http://www.w3.org/2000/svg" xmlns:xlink="http://www.w3.org/1999/xlink" width="1024" height="1024" viewBox="0 0 1024 1024"><path fill="white" d="M0 0L1024 0L1024 1024L0 1024L0 0Z"/><path fill="#3135FE" d="M611.364 335.748L785.887 335.735C774.497 348.872 763.333 358.649 750.912 370.765C730.682 390.495 710.259 411.394 689.547 430.516C660.996 430.66 632.445 430.657 603.894 430.506C595.045 430.455 587.287 430.139 580.516 437.024C573.238 444.423 574.456 455.081 581.759 461.971C584.631 464.656 588.189 466.497 592.04 467.291C598.384 468.595 613.195 467.928 620.024 467.748C631.26 467.44 642.498 467.223 653.738 467.094C663.753 466.968 677.832 466.423 687.356 467.208C711.563 469.204 736.59 482.652 753.747 499.519C774.258 519.351 785.772 546.704 785.617 575.234C785.784 604.928 774.035 633.449 753.001 654.409C744.992 662.484 735.776 669.263 725.683 674.505C694.515 690.967 666.4 687.675 632.25 687.61L511.87 687.581C493.569 687.585 470.8 688.4 452.824 687.626L505.552 635.946C519.135 622.528 535.379 605.91 549.215 593.294C558.098 592.638 571.883 593.009 581.037 592.987L640.798 592.912C652.573 592.909 677.758 595.249 686.118 586.799C688.875 584.001 690.362 580.195 690.232 576.269C689.658 555.456 661.344 559.04 647.662 559.291L613.307 559.823C573.727 560.674 546.156 560.861 514.614 531.123C495.353 512.965 485.401 489.631 484.864 463.089C517.058 429.854 549.497 396.858 582.177 364.102C585.967 360.29 608.04 337.282 611.364 335.748Z"/><path fill="#3135FE" d="M449.246 335.754L572.729 335.562C566.35 344.537 548.7 360.706 540.297 369.018C519.426 389.873 498.375 410.546 477.145 431.035L445.063 430.983C410.258 430.939 382.768 428.13 355.866 454.965C325.094 485.66 326.274 538.732 357.017 568.607C367.607 578.951 380.734 586.324 395.078 589.985C410.967 594.065 435.984 592.932 453.148 592.912L512.208 592.674C501.345 603.109 489.856 616.286 478.967 627.323C458.483 647.855 437.837 668.224 417.031 688.43C318.704 688.115 238.168 613.079 238.024 513.469C238.069 466.859 256.417 422.131 289.116 388.915C319.501 358.346 359.846 339.694 402.817 336.351C415.853 335.239 435.881 335.77 449.246 335.754Z"/></svg>