<?xml version="1.0" encoding="utf-8" ?><svg xmlns="http://www.w3.org/2000/svg" width="206" height="132" viewBox="366 238 206 132"><path fill="#EE6F3C" transform="scale(1.24789 1.24789)" d="M308.784 241.949C314.019 228.429 319.816 218.963 333.657 212.787C338.602 210.59 343.831 209.099 349.19 208.356C356.899 207.335 368.674 207.765 376.778 207.83C389.872 207.94 402.967 207.967 416.061 207.912C411.47 230.431 393.556 252.593 378.706 269.772C376.582 272.229 375.007 274.223 373.186 276.909L372.763 277.521L372.516 277.892C352.836 280.313 358.684 268.722 350.767 256.734C357.508 254.313 358.977 256.272 367.19 251.144C367.018 254.684 367.538 259.345 368.158 262.865C379.123 250.924 389.197 244.675 399.139 230.54C370.608 228.584 335.132 229.817 308.784 241.949Z"/><path fill="#EE6F3C" transform="scale(1.24789 1.24789)" d="M418.785 208.711C433.033 220.968 435.277 226.163 441.54 243.492C439.442 242.11 438.326 241.343 436.064 240.102C427.19 235.75 420.671 233.336 410.96 231.407C413.978 224.215 416.416 218.309 418.223 210.66L418.785 208.711Z"/></svg>