<?xml version="1.0" encoding="utf-8" ?><svg xmlns="http://www.w3.org/2000/svg" xmlns:xlink="http://www.w3.org/1999/xlink" width="1278" height="639" viewBox="0 0 1278 639"><path fill="#1A2429" transform="scale(1.24789 1.24789)" d="M0 0L1024 0L1024 511.737L1024 1024L0 1024L0 511.692L0 0Z"/><path fill="#FEFEFE" transform="scale(1.24789 1.24789)" d="M0 0L1024 0L1024 511.737L402.19 511.826L136.379 511.848C91.2434 511.835 45.0503 512.331 0 511.692L0 0Z"/><path fill="#EE6F3C" transform="scale(1.24789 1.24789)" d="M308.784 241.949C314.019 228.429 319.816 218.963 333.657 212.787C338.602 210.59 343.831 209.099 349.19 208.356C356.899 207.335 368.674 207.765 376.778 207.83C389.872 207.94 402.967 207.967 416.061 207.912C411.47 230.431 393.556 252.593 378.706 269.772C376.582 272.229 375.007 274.223 373.186 276.909L372.763 277.521L372.516 277.892C352.836 280.313 358.684 268.722 350.767 256.734C357.508 254.313 358.977 256.272 367.19 251.144C367.018 254.684 367.538 259.345 368.158 262.865C379.123 250.924 389.197 244.675 399.139 230.54C370.608 228.584 335.132 229.817 308.784 241.949Z"/><path fill="#1A2429" transform="scale(1.24789 1.24789)" d="M229.764 213.183C245.049 211.032 259.784 216.964 269.542 228.737C266.504 230.925 261.902 235.461 258.382 238.199C247.045 226.238 232.263 223.369 217.963 232.388C204.662 241.14 202.17 262.52 211.672 274.817C222.041 288.238 238.809 290.811 252.355 280.483C254.117 278.82 255.657 276.933 257.242 275.094C260.509 277.555 265.765 282.558 268.976 285.431C252.637 303.777 226.007 307.044 206.626 291.471C197.63 284.357 191.907 273.895 190.767 262.482C187.98 236.964 204.1 215.978 229.764 213.183Z"/><path fill="#1A2429" transform="scale(1.24789 1.24789)" d="M543.937 213.181C558.443 211.233 574.745 216.42 583.808 228.263C580.821 231.211 575.927 235.555 572.673 238.023C567.898 232.252 563.621 229.724 556.197 228.055C528.217 221.763 511.172 253.684 526.778 275.48C531.176 281.544 537.836 285.578 545.248 286.667C553.671 287.91 560.777 285.635 567.524 280.739C569.096 279.229 570.773 277.164 572.22 275.482C576.033 279.227 579.582 281.924 583.776 285.158C560.064 314.899 511.739 302.432 506.172 264.571C502.355 238.614 517.911 216.748 543.937 213.181Z"/><path fill="#1A2429" transform="scale(1.24789 1.24789)" d="M468.277 242.593C494.169 241.06 500.035 254.392 501.46 276.543L457.397 276.569C462.408 292.806 475.9 291.913 487.551 283.126L488.489 283.399C491.634 285.681 494.801 288.321 497.843 290.772C493.332 296.234 489.098 299.407 481.845 301.089C454.008 307.544 433.349 279.797 448.1 255.266C452.462 248.013 459.916 244.242 468.277 242.593Z"/><path fill="#FEFEFE" transform="scale(1.24789 1.24789)" d="M471.601 254.633C481.401 254.619 485.117 258.022 487.336 267.001L473.75 267.021C468.326 267.054 462.901 267.053 457.477 267.019C459.815 258.958 463.153 256.108 471.601 254.633Z"/><path fill="#1A2429" transform="scale(1.24789 1.24789)" d="M675.825 242.608C699.711 240.516 708.003 255.604 708.016 276.569C693.347 276.682 678.677 276.665 664.009 276.515C666.846 287.267 675.666 290.985 686.171 288.203C690.036 287.179 691.179 285.603 693.981 282.877C695.409 282.823 695.526 283.417 697 284.65C699.41 286.869 702.139 288.686 704.816 290.581C694.64 302.846 676.367 305.867 663.101 297.033C656.545 292.607 652.056 285.72 650.652 277.935C647.253 259.859 658.057 246.036 675.825 242.608Z"/><path fill="#FEFEFE" transform="scale(1.24789 1.24789)" d="M677.415 255.125C687.771 254.545 691.37 257.269 694.471 266.878C690.398 266.935 686.324 266.959 682.25 266.949L664.484 266.971C667.014 259.62 669.536 256.779 677.415 255.125Z"/><path fill="#1A2429" transform="scale(1.24789 1.24789)" d="M603.446 206.134C604.253 208.137 603.968 248.516 604 253.952C608.946 246.957 612.672 242.776 621.809 242.686C637 242.536 642.257 254.434 642.162 267.732C642.084 278.766 642.053 289.856 642.068 300.88C637.489 300.965 632.692 300.891 628.094 300.892C628.215 289.693 628.255 278.493 628.212 267.294C626.467 249.874 606.417 253.23 604.686 267.144C603.405 277.443 604.092 290.395 604.156 300.958L590.074 300.839L589.962 244.341C589.944 236.314 589.475 224.763 590.575 216.832C591.091 213.103 600.07 208.142 603.446 206.134Z"/><path fill="#1A2429" transform="scale(1.24789 1.24789)" d="M790.277 206.465C791.362 207.741 790.851 259.921 790.899 266.16C798.421 259.052 805.709 250.376 813.377 242.947L831.251 242.966C826.052 249.424 811.032 263.827 804.419 270.688C812.572 278.804 820.126 287.159 828.097 295.432L833.246 300.773C827.252 300.585 820.836 300.658 814.811 300.635C806.625 292.187 798.57 283.614 790.648 274.92C790.385 282.43 790.968 292.702 791.024 300.587C786.564 301.036 781.006 300.835 776.442 300.796L776.537 246.246C776.549 237.751 776.103 226.584 777.269 218.263C777.966 213.288 786.088 208.959 790.277 206.465Z"/><path fill="#1A2429" transform="scale(1.24789 1.24789)" d="M371.793 239.085C370.488 244.655 370.756 246.803 367.19 251.144C358.977 256.272 357.508 254.313 350.767 256.734C338.817 255.239 325.424 257.781 325.946 272.879C326.087 277.26 328.016 281.393 331.285 284.313C339.046 291.284 350.737 289.505 357.471 282C361.423 282.789 365.738 282.468 369.415 283.716C377.831 286.57 375.494 299.596 367.85 301.935C363.079 303.394 360.351 301.812 356.358 299.696C347.619 304.074 334.854 302.876 326.409 298.285C319.616 294.665 314.589 288.436 312.484 281.032C304.016 251.051 336.66 233.354 361.42 247.758C365.84 245.161 368.178 242.672 371.793 239.085Z"/><path fill="#1A2429" transform="scale(1.24789 1.24789)" d="M740.26 242.643C753.118 241.305 760.537 245.563 768.823 254.736C765.085 257.323 762.052 259.939 758.59 262.856C734.162 237.194 712.226 283.399 742.887 288.554C748.316 289.467 754.415 285.258 758.351 281.75L759.358 281.878L768.903 290.067C741.618 319.785 698.098 288.425 718.96 254.531C723.301 247.479 732.339 243.837 740.26 242.643Z"/><path fill="#1A2429" transform="scale(1.24789 1.24789)" d="M405.886 243.204C407.843 243.095 409.801 243.017 411.76 242.968C436.158 242.522 436.223 260.472 435.582 278.982C435.337 286.044 435.535 293.843 435.542 300.955L421.966 300.896C422.012 292.604 422.109 284.288 422.068 275.996C422.026 267.508 422.71 259.212 413.116 256.231C397.351 255.698 397.37 268.834 397.745 280.532C397.953 287.007 397.839 294.181 397.616 300.653C393.068 300.783 388.198 300.663 383.625 300.632C383.75 293.171 384.353 277.401 383.466 270.757C393.526 262.438 398.265 253.505 405.886 243.204Z"/><path fill="#1A2429" transform="scale(1.24789 1.24789)" d="M307.02 242.627L308.345 242.744C309.698 244.872 308.866 254.52 308.732 257.585C289.103 257.6 290.066 271.58 290.413 286.227C290.527 291.031 290.435 296.153 290.447 300.965L276.375 300.978L276.42 293.625L276.519 243.935L289.877 243.842L289.906 255.229C294.647 247.215 297.851 244.275 307.02 242.627Z"/><path fill="#EE6F3C" transform="scale(1.24789 1.24789)" d="M418.785 208.711C433.033 220.968 435.277 226.163 441.54 243.492C439.442 242.11 438.326 241.343 436.064 240.102C427.19 235.75 420.671 233.336 410.96 231.407C413.978 224.215 416.416 218.309 418.223 210.66L418.785 208.711Z"/><path fill="#EE6F3C" transform="scale(1.24789 1.24789)" d="M354.079 719.707C360.318 719.369 369.506 719.644 375.979 719.647L416.63 719.526C411.021 743.864 394.252 765.335 377.821 783.392C375.699 785.725 373.63 788.421 371.69 790.923C369.952 790.973 363.48 791.285 362.209 790.882C352.149 787.425 358.486 769.603 346.147 768.23C321.198 765.453 318.443 799.213 342.836 801.171C349.272 801.687 353.734 798.749 358.298 794.576C362.014 795.387 370.262 795.326 372.594 797.874C380.92 806.969 369.087 820.445 357.533 811.466C356.077 812.096 354.591 812.656 353.081 813.143C344.217 816.013 333.979 814.844 325.728 810.577C324.86 810.02 324.008 809.437 323.174 808.829C316.922 804.238 312.776 797.328 311.666 789.65C307.631 761.182 341.511 744.092 361.871 760.231C367.245 756.843 368.535 755.445 372.716 750.549C371.28 756.46 370.603 760.547 366.907 765.565C367.488 768.194 368.245 771.005 368.906 773.635C380.098 762.724 390.169 754.209 400.623 742.379C362.197 739.886 346.119 741.415 309.447 753.533C315.813 731.627 332.053 721.274 354.079 719.707Z"/><path fill="#EE6F3C" transform="scale(1.24789 1.24789)" d="M546.164 725.191C549.046 724.948 551.942 724.945 554.824 725.183C568.149 726.17 576.526 731.498 584.93 741.325L572.842 750.71C561.675 738.921 546.731 736.083 532.746 745.484C519.57 754.575 517.613 775.209 526.771 787.717C536.605 801.15 554.985 802.51 567.787 792.93C569.645 791.456 571.442 789.636 573.164 787.984C576.903 791.868 579.992 793.981 584.491 796.89C584.066 797.587 583.606 798.262 583.113 798.913C569.655 817.03 537.524 818.329 521.51 804.14C491.708 777.736 505.764 729.533 546.164 725.191Z"/><path fill="#EE6F3C" transform="scale(1.24789 1.24789)" d="M234.706 725.21C249.574 725.087 259.925 730.45 269.49 741.426C265.532 744.602 261.595 747.805 257.68 751.033C252.435 744.306 247.203 741.136 238.732 739.873C211.181 735.766 195.329 768.608 212.347 789.016C217.328 795.037 224.557 798.756 232.352 799.309C241.216 799.968 248.116 797.021 254.67 791.3L257.65 788.027C261.582 791.547 264.411 794 268.695 797.179C255.318 817.32 223.168 819.049 205.319 803.84C195.239 795.198 190.42 783.326 190.229 770.14C189.826 742.384 208.547 726.766 234.706 725.21Z"/><path fill="#EE6F3C" transform="scale(1.24789 1.24789)" d="M468.519 754.61C469.428 754.51 470.34 754.446 471.255 754.42C484.335 753.975 495.654 759.611 499.97 772.725C501.858 778.463 501.735 783.434 501.751 789.368L457.913 789.405C460.851 799.739 469.476 803.827 479.523 800.807C483.457 799.625 485.019 796.957 488.255 794.859L489.288 795.654C492.055 798.18 495.561 800.734 498.576 803.043C494.226 807.84 489.921 811.329 483.306 813.025C454.062 820.521 433.463 792.805 448.552 767.167C452.711 760.101 460.582 756.319 468.519 754.61Z"/><path fill="#1A2429" transform="scale(1.24789 1.24789)" d="M471.159 767.087C481.54 766.435 485.055 769.659 488.443 778.972C484.033 779.354 480.427 779.336 475.991 779.35C469.934 779.333 463.758 779.371 457.717 779.009C460.796 771.416 462.86 768.776 471.159 767.087Z"/><path fill="#EE6F3C" transform="scale(1.24789 1.24789)" d="M677.277 754.662C681.646 754.242 687.987 754.955 692.013 756.598C707.208 762.798 708.775 775.372 708.545 789.091C693.83 789.355 679.11 789.251 664.4 788.78L664.563 789.333L664.847 790.251C668.264 801.564 680.805 804.066 690.64 798.777C692.025 798.033 693.291 795.663 695.161 794.641L696.831 795.942C700.013 798.272 702.449 800.131 705.431 802.698C700.567 808.398 695.045 812.706 687.388 813.662C678.452 814.777 669.25 813.542 661.973 807.946C655.929 803.299 651.975 796.444 650.978 788.884C648.482 770.677 659.117 757.121 677.277 754.662Z"/><path fill="#1A2429" transform="scale(1.24789 1.24789)" d="M679.131 766.646C686.34 766.164 693.03 769.855 694.63 777.24L695.151 779.428C690.621 779.324 686.439 779.166 681.875 779.147C676.351 779.111 670.347 779.187 664.877 778.938C668.164 770.575 670.05 768.072 679.131 766.646Z"/><path fill="#EE6F3C" transform="scale(1.24789 1.24789)" d="M776.538 813.392L776.694 761.019C776.729 751.66 776.126 738.643 777.7 729.513C778.422 725.324 787.047 720.821 790.92 718.524L790.972 773.54C791.919 774.64 792.224 774.98 793.318 775.972C799.869 769.093 806.48 762.27 813.148 755.503C819.104 755.506 825.176 755.571 831.122 755.496C825.012 761.791 810.184 777.765 803.876 782.348C812.308 790.273 820.025 799.166 828.361 807.233C830.26 809.071 832.1 810.983 833.743 813.056L815.876 813.204C809.428 806.611 798.68 796.174 793.24 789.461C791.96 790.527 791.923 790.453 790.985 791.814L790.971 813.357L776.538 813.392Z"/><path fill="#251B1F" transform="scale(1.24789 1.24789)" d="M790.972 773.54C791.919 774.64 792.224 774.98 793.318 775.972C790.247 779.363 790.934 777.155 790.972 773.54Z"/><path fill="#251B1F" transform="scale(1.24789 1.24789)" d="M790.985 791.814C790.97 788.311 790.325 785.994 793.24 789.461C791.96 790.527 791.923 790.453 790.985 791.814Z"/><path fill="#EE6F3C" transform="scale(1.24789 1.24789)" d="M603.881 718.042C604.311 720.57 604.11 731.06 604.093 734.042C603.986 744.538 603.968 755.034 604.04 765.53C605.076 764.091 606.293 762.523 607.48 761.21C611.201 757.089 616.452 754.679 622.003 754.543C627.311 754.435 632.389 756.025 636.157 759.845C641.66 765.423 642.353 772.864 642.299 780.234C642.219 791.176 642.176 802.114 642.093 813.053L628.333 813.051L628.273 778.628C628.123 775.623 627.639 772.711 625.475 770.378C621.584 766.12 613.31 766.769 609.308 770.564C603.735 775.847 603.969 783.863 603.982 790.918C603.996 798.344 603.985 805.745 603.996 813.158L590.403 813.122C590.254 786.465 589.716 755.716 590.507 729.285C593.528 724.683 599.334 721.187 603.881 718.042Z"/><path fill="#EE6F3C" transform="scale(1.24789 1.24789)" d="M739.184 754.637C751.627 753.733 760.649 755.887 768.606 766.351C765.565 769.015 761.835 771.91 758.661 774.59C755.007 771.221 751.294 768.6 746.188 767.89C741.887 767.307 737.535 768.512 734.146 771.224C717.418 784.477 736.702 814.433 758.79 793.606C762.26 796.305 765.677 799.07 769.04 801.9C754.317 822.671 718.907 815.744 714.176 790.196C712.603 781.877 714.438 773.275 719.269 766.322C724.485 758.924 730.654 756.1 739.184 754.637Z"/><path fill="#EE6F3C" transform="scale(1.24789 1.24789)" d="M406.002 755.2C408.684 755.01 411.369 754.888 414.057 754.835C419.635 754.754 425.428 756.035 429.407 760.213C436.398 767.553 435.574 778.41 435.561 787.756C435.548 796.312 435.531 804.818 435.511 813.348C430.985 813.348 426.461 813.261 421.939 813.087C421.753 804.28 423.319 779.516 419.676 772.575C418.229 769.819 416.159 768.878 413.31 767.955C394.509 767.704 397.541 784.848 397.474 797.989C397.449 802.993 397.469 808.037 397.457 813.033L383.623 813.011C383.614 803.306 383.69 793.601 383.851 783.898C388.924 778.751 394.365 772.346 398.558 766.528C401.088 763.019 403.182 759.088 405.738 755.56L406.002 755.2Z"/><path fill="#EE6F3C" transform="scale(1.24789 1.24789)" d="M291.675 764.926L292.224 764.17C297.159 757.509 301.409 755.164 309.32 754.078C308.944 758.854 309.086 765.398 309.052 770.308C303.637 770.337 298.955 770.224 294.726 774.427C292.854 776.302 291.53 778.652 290.895 781.223C289.83 785.402 290.409 807.182 290.318 813.152L276.294 813.102C275.942 794.851 276.495 774.388 276.49 755.92L289.946 755.83L289.72 762.57C290.496 763.878 290.49 764.076 291.675 764.926Z"/><path fill="#251B1F" transform="scale(1.24789 1.24789)" d="M289.546 768.89C289.58 766.783 289.638 764.676 289.72 762.57C290.496 763.878 290.49 764.076 291.675 764.926C291.287 766.064 290.165 767.805 289.546 768.89Z"/><path fill="#EE6F3C" transform="scale(1.24789 1.24789)" d="M419.197 720.228C429.524 726.756 437.358 739.235 440.853 750.788L442.079 754.967L437.296 752.514C431.756 749.624 421.171 745.168 414.999 744.012L412.107 743.458C415.618 734.219 417.942 730.706 419.197 720.228Z"/></svg>