<?xml version="1.0" encoding="utf-8" ?><svg xmlns="http://www.w3.org/2000/svg" xmlns:xlink="http://www.w3.org/1999/xlink" width="1024" height="1024" viewBox="0 0 1024 1024"><path fill="white" d="M0 0L1024 0L1024 1024L0 1024L0 0Z"/><path fill="#065B77" d="M780.274 110.925C781.183 112.002 782.093 118.632 782.531 120.536C783.812 126.106 785.374 131.286 787.249 136.658C792.498 152.163 799.32 167.09 807.609 181.205C820.067 202.572 834.647 221.337 851.885 239.04C858.263 245.591 866.004 252.625 870.173 260.79C870.534 261.495 870.874 262.211 871.194 262.936C876.756 275.542 875.119 301.747 875.112 316.462L875.091 378.259L875.015 572.831L875.097 729.707L875.132 779.206C875.156 793.57 876.705 812.172 871.429 825.496C866.105 839.187 855.415 850.106 841.839 855.719C837.456 857.573 830.95 859.221 826.2 859.377C811.52 859.441 795.79 860.309 781.193 859.672C760.869 858.786 736.052 862.623 717.035 855.007C701.033 847.12 686.615 831.78 684.731 813.06C683.72 803.008 684.379 790.421 684.387 780.138L684.438 714.52L684.481 468.908C670.382 473.602 642.717 478.713 627.954 478.5C627.258 466.106 627.548 452.341 627.541 439.83L627.46 380.093C637.301 378.605 645.52 377.977 655.507 375.495C665.897 372.914 674.468 369.848 684.491 366.126L684.426 310.128C684.436 297.869 683.536 280.652 686.196 269.103C688.876 257.463 697.728 249.626 705.718 241.426C710.334 236.722 714.797 231.871 719.101 226.88C747.109 193.995 772.1 153.942 780.274 110.925Z"/><path fill="#065B77" d="M248.828 111.843L249.244 111.914C262.06 168.631 289.69 209.671 330.197 251.156C345.96 267.3 342.7 290.596 342.69 311.423L342.676 365.091C360.854 373.492 378.624 377.409 398.368 379.761L398.483 478.416C377.879 477.834 362.228 474.277 342.62 468.946C341.967 498.639 342.565 530.482 342.587 560.421L342.57 723.829L342.646 777.458C342.668 788.548 343.641 811.238 340.603 820.991C336.318 834.947 326.616 846.602 313.669 853.349C307.851 856.371 301.538 858.322 295.029 859.111C286.266 860.182 262.03 859.805 252.481 859.623C237.217 859.333 216.021 860.43 201.363 859.351C197.001 859.054 192.69 858.231 188.525 856.9C167.136 849.909 152.588 830.342 152.223 807.835C151.983 793.035 152.2 778.211 152.253 763.408L152.372 685.892L152.35 446.87L152.319 339.578L152.233 305.623C152.206 294.041 151.449 279.435 154.303 268.421C157.565 255.835 166.318 248.474 174.901 239.402C180.706 233.374 186.33 227.175 191.767 220.812C199.332 211.919 206.649 201.63 213.065 191.884C226.841 170.958 238.596 148.144 245.468 123.979C246.608 119.97 247.503 115.781 248.828 111.843Z"/><path fill="#065B77" d="M514.652 111.322C515.64 113.29 517.28 121.471 517.851 124.029C521.054 138.372 525.985 151.274 532.398 164.498C543.367 187.05 557.339 208.013 573.932 226.816C592.521 247.855 606.425 254.652 606.571 285.028L606.543 649.302L606.523 759.602L606.502 792.228C606.476 812.656 606.594 828.29 590.991 843.933C575.172 859.792 559.304 859.669 538.353 859.642L510.25 859.569C498.587 859.596 469.504 860.498 459.862 858.25C446.454 855.049 434.871 846.643 427.672 834.888C423.337 827.881 419.463 818.47 419.179 810.181C418.671 795.364 418.633 780.14 418.612 765.302L418.56 690.646L419.011 445.474C419.119 414.858 419.067 384.241 418.854 353.625C418.621 338.023 418.604 322.419 418.803 306.816C418.835 297.519 418.746 288.251 419.107 278.948C419.895 258.681 431.121 249.904 444.425 236.699C449.158 232.072 453.626 227.181 457.806 222.049C485.687 187.967 504.538 154.144 514.652 111.322Z"/><path fill="#64808D" d="M248.828 111.843C248.842 111.431 248.617 110.983 248.997 110.729C249.401 110.877 249.249 111.685 249.244 111.914L248.828 111.843Z"/></svg>