<?xml version="1.0" encoding="utf-8" ?><svg xmlns="http://www.w3.org/2000/svg" width="221" height="230" viewBox="143 239 221 230"><rect x="143" y="239" width="221" height="230" fill="white"/><path fill="#FA4B3F" transform="scale(1.24789 1.24789)" d="M215.758 207.58L216.158 208.048C199.782 247.726 224.173 256.019 220.24 271.064C217.578 281.248 208.217 284.725 200.184 289.676C190.123 295.878 181.364 307.198 178.642 318.769C175.125 333.727 182.027 347.027 189.74 359.309C184.498 357.86 180.724 356.08 175.936 353.59C139.424 333.28 142.507 293.132 158.336 259.772C170.255 234.654 189.628 216.971 215.758 207.58Z"/><path fill="#FA4B3F" transform="scale(1.24789 1.24789)" d="M229.859 255.109L230.782 255.62L231.447 255.974C244.077 262.831 256.119 278.962 259.888 292.745C268.555 324.442 247.821 349.266 218.11 357.648C213.958 358.578 211.429 358.839 207.155 359.24C182.323 344.518 182.636 316.324 205.15 299.524C210.097 295.833 216.037 293.115 220.274 288.501C228.664 279.365 230.099 266.961 229.859 255.109Z"/></svg>