<?xml version="1.0" encoding="utf-8" ?><svg xmlns="http://www.w3.org/2000/svg" xmlns:xlink="http://www.w3.org/1999/xlink" width="1278" height="639" viewBox="0 0 1278 639"><path fill="#FEFEFE" transform="scale(1.24789 1.24789)" d="M0 0L1024 0L1024 512.069L1024 1024L0 1024L0 512.038L0 0Z"/><path fill="#1E2122" transform="scale(1.24789 1.24789)" d="M0 512.038L1024 512.069L1024 1024L0 1024L0 512.038Z"/><path fill="#FA4B3F" transform="scale(1.24789 1.24789)" d="M853.524 810.907C831.948 839.397 785.471 824.704 782.196 788.999C779.854 763.464 790.625 740.336 818.384 736.21C836.162 734.249 846.387 740.441 856.425 754.736L856.56 737.347C862.081 737.346 868.321 737.202 873.785 737.46C873.514 757.785 874.036 778.11 873.844 798.41C873.447 809.669 874.643 821.095 872.176 832.173C867.073 855.094 844.288 862.737 823.204 862.057C808.233 861.574 795.164 858.07 782.673 849.539C786.506 845.029 790.407 840.941 794.468 836.646C798.624 839.422 802.02 841.543 806.73 843.179C826.127 849.916 855.534 846.769 855.485 820.25C855.48 817.83 855.559 815.217 855.567 812.771L853.524 810.907Z"/><path fill="#2D1B1F" transform="scale(1.24789 1.24789)" d="M853.524 810.907C855.865 807.324 855.461 809.93 855.567 812.771L853.524 810.907Z"/><path fill="#1E2122" transform="scale(1.24789 1.24789)" d="M824.323 753.471C839.712 751.765 853.58 762.832 855.333 778.216C857.085 793.6 846.061 807.502 830.682 809.302C815.237 811.109 801.262 800.026 799.502 784.576C797.742 769.125 808.867 755.184 824.323 753.471Z"/><path fill="#FA4B3F" transform="scale(1.24789 1.24789)" d="M718.266 736.625C743.526 733.563 766.481 751.572 769.518 776.835C772.555 802.098 754.523 825.035 729.257 828.046C704.026 831.054 681.129 813.053 678.097 787.825C675.064 762.598 693.042 739.683 718.266 736.625Z"/><path fill="#1E2122" transform="scale(1.24789 1.24789)" d="M721.428 753.179C758.209 751.674 761.981 807.089 726.372 812.165C687.364 812.188 685.969 757.18 721.428 753.179Z"/><path fill="#FA4B3F" transform="scale(1.24789 1.24789)" d="M526.892 736.684C535.465 735.727 546.548 737.486 554.14 741.573C567.208 748.608 572.214 758.328 576.442 771.78C557.328 780.628 525.79 792.517 508.771 803.168C511.021 806.301 513.394 808.733 516.674 810.692C526.62 816.632 540.186 815.027 547.947 806.222C551.517 802.172 552.82 798.631 554.742 793.753L558.898 795.554C563.554 797.228 567.208 798.64 571.756 800.616C565.867 816.852 555.7 826.656 538.197 829.262C526.94 831.054 513.103 829.565 503.878 822.052C471.717 795.86 484.894 742.411 526.892 736.684Z"/><path fill="#1E2122" transform="scale(1.24789 1.24789)" d="M530.593 752.166C540.547 751.752 547.885 757.63 553.819 764.943C541.155 769.314 523.905 777.01 514.326 786.362C509.668 791.316 508.989 793.311 506.495 799.368C497.922 778.43 506.011 755.442 530.593 752.166Z"/><path fill="#FA4B3F" transform="scale(1.24789 1.24789)" d="M215.123 680.953L215.659 681.083C216.057 682.715 214.126 686.267 213.413 688.495C211.626 694.207 210.747 700.165 210.808 706.15C210.842 711.668 211.618 715.843 213.544 720.97C216.2 728.039 222.238 734.314 220.334 742.276C217.747 753.093 208.394 755.894 200.341 760.889C190.445 767.36 182.256 778.095 179.523 789.644C177.715 797.287 178.773 804.909 181.046 812.235C183.03 818.627 186.777 824.271 190.309 829.888C185.19 828.405 182.016 827.009 177.261 824.686C131.475 798.938 148.557 740.8 176.161 707.493C187.034 694.373 199.372 687.241 215.123 680.953Z"/><path fill="#FA4B3F" transform="scale(1.24789 1.24789)" d="M230.148 727.198C233.682 729.19 237.142 731.463 240.142 734.191C276.674 767.405 264.901 814.043 218.376 827.833C213.871 829.059 211.234 829.541 206.591 830.232C204.036 828.433 201.853 826.904 199.653 824.645C182.49 807.025 186.351 784.5 205.791 770.611C210.041 767.575 216.538 764.731 219.984 760.973C228.774 751.39 230.121 739.631 230.148 727.198Z"/><path fill="#FA4B3F" transform="scale(1.24789 1.24789)" d="M297.1 707.742C315.127 707.822 333.155 707.8 351.182 707.675C362.084 707.616 374.498 707.266 385.301 707.742C378.668 730.138 366.784 727.605 347.374 727.557L315.492 727.479L315.546 759.966C329.108 759.931 342.849 760.237 356.422 759.797C359.947 759.682 368.654 756.731 370.892 757.784L370.841 759.454C362.587 783.018 336.531 778.103 315.906 778.138C315.941 798.77 321.254 826.591 294.39 830.388C297.236 817.811 296.808 801.255 296.843 788.096L296.9 736.303C296.904 727.466 296.599 716.417 297.1 707.742Z"/><path fill="#FA4B3F" transform="scale(1.24789 1.24789)" d="M594.834 703.284C603.675 704.791 611.427 709.614 612.673 719.263C614.012 729.627 613.472 740.793 613.472 751.29L613.449 810.401C631.221 810.448 660.318 811.677 676.369 807.817C674.711 813.543 673.478 816.528 669.936 821.241C669.495 821.731 669.039 822.207 668.57 822.669C660.198 830.833 643.12 828.969 632.14 828.966L595.144 829.023C594.296 800.311 595.413 771.034 594.799 742.253C594.527 729.53 594.406 715.959 594.834 703.284Z"/><path fill="#FA4B3F" transform="scale(1.24789 1.24789)" d="M474.885 737.689C477.145 737.51 480.093 737.605 482.416 737.607C481 744.136 478.911 750.055 477.645 756.951C470.031 757.171 462.133 759.28 456.585 764.801C447.521 773.817 449.512 786.262 449.541 797.884L449.548 829.099L431.471 829.21L431.459 820.455L431.507 739.895C437.385 739.842 443.264 739.832 449.142 739.866C449.338 745.615 449.34 751.642 449.42 757.414C455.51 745.795 460.986 739.244 474.885 737.689Z"/><path fill="#FA4B3F" transform="scale(1.24789 1.24789)" d="M407.344 739.752C408.553 739.68 408.49 739.676 409.657 740.007C410.263 741.089 410.258 820.303 410.313 829.121L395.375 829.146C394.143 829.189 394.074 829.142 392.856 828.878C392.119 827.21 392.236 748.504 392.2 739.846L407.344 739.752Z"/><path fill="#FA4B3F" transform="scale(1.24789 1.24789)" d="M401.263 702.035C408.373 701.278 414.763 706.397 415.575 713.5C416.387 720.604 411.318 727.033 404.221 727.9C397.046 728.776 390.531 723.639 389.71 716.458C388.889 709.276 394.076 702.801 401.263 702.035Z"/><path fill="#1E2122" transform="scale(1.24789 1.24789)" d="M818.038 266.158C836.222 264.269 847.485 270.271 856.965 285.481L856.997 267.012L874.895 266.876L874.662 325.224C874.682 353.021 878.761 381.363 845.144 390.94C821.346 397.72 802.869 391.828 782.133 380.576L789.022 373.127L794.468 366.651C808.288 378.284 836.288 382.322 850.082 368.679C857.952 360.893 856.56 348.876 856.52 338.706C856.203 339.186 855.886 339.666 855.569 340.146C834.835 369.643 787.044 357.053 782.028 321.198C778.316 294.66 790.879 270.552 818.038 266.158Z"/><path fill="#FEFEFE" transform="scale(1.24789 1.24789)" d="M822.698 283.692C838.31 281.067 853.093 291.597 855.713 307.21C858.334 322.822 847.799 337.602 832.185 340.218C816.579 342.832 801.807 332.303 799.188 316.697C796.568 301.092 807.093 286.316 822.698 283.692Z"/><path fill="#1E2122" transform="scale(1.24789 1.24789)" d="M718.697 266.393C744.458 263.887 767.37 282.747 769.863 308.509C772.356 334.272 753.485 357.174 727.722 359.654C701.976 362.132 679.094 343.278 676.603 317.534C674.112 291.79 692.954 268.898 718.697 266.393Z"/><path fill="#FEFEFE" transform="scale(1.24789 1.24789)" d="M721.361 282.671C727.251 282.035 734.54 284.295 739.466 287.469C753.942 296.8 756.119 318.189 746.967 331.953C742.143 339.208 735.098 343.008 726.632 344.658C688.701 347.386 681.732 288.13 721.361 282.671Z"/><path fill="#1E2122" transform="scale(1.24789 1.24789)" d="M525.802 265.614C536.238 264.983 544.867 264.937 554.343 269.874C569.003 277.511 572.966 286.469 577.877 301.059C564.464 307.437 517.565 324.901 509.414 332.836C514.843 339.714 521.618 343.847 530.533 343.682C544.943 343.417 550.96 335.29 555.331 323.125C556.324 323.398 557.621 323.901 558.622 324.252C563.217 326.226 568.193 328.137 572.852 330.021C564.362 358.11 529.904 368.777 506.105 353.164C496.025 346.429 489.069 335.932 486.795 324.024C484.148 310.57 486.936 296.615 494.549 285.211C502.154 274.003 512.658 268.057 525.802 265.614Z"/><path fill="#FEFEFE" transform="scale(1.24789 1.24789)" d="M530.959 281.695C541.214 281.902 547.735 285.259 554.154 293.101C540.703 300.067 526.218 303.326 514.596 314.856C509.922 320.198 508.958 322.007 506.292 328.606C503.541 320.886 502.633 315.509 503.9 307.246C504.61 302.738 506.183 298.409 508.533 294.497C512.253 288.408 518.29 284.096 525.256 282.552C527.619 282.017 528.518 281.972 530.959 281.695Z"/><path fill="#FA4B3F" transform="scale(1.24789 1.24789)" d="M215.758 207.58L216.158 208.048C199.782 247.726 224.173 256.019 220.24 271.064C217.578 281.248 208.217 284.725 200.184 289.676C190.123 295.878 181.364 307.198 178.642 318.769C175.125 333.727 182.027 347.027 189.74 359.309C184.498 357.86 180.724 356.08 175.936 353.59C139.424 333.28 142.507 293.132 158.336 259.772C170.255 234.654 189.628 216.971 215.758 207.58Z"/><path fill="#1E2122" transform="scale(1.24789 1.24789)" d="M296.031 233.961C325.019 233.442 356.829 233.802 385.875 234.08C377.725 258.3 364.547 254.568 343.279 254.444L315.871 254.479C315.846 265.749 315.891 277.019 316.007 288.289C329.868 288.826 344.45 288.187 358.378 288.36C361.016 288.392 367.978 286.618 371.192 286.261L371.732 286.79L371.342 289.433C363.959 311.656 335.375 306.573 315.94 306.588C315.661 326.81 322.043 357.865 294.136 360.785C297.117 342.593 296.166 322.887 296.171 304.29C296.252 280.847 296.206 257.404 296.031 233.961Z"/><path fill="#FA4B3F" transform="scale(1.24789 1.24789)" d="M229.859 255.109L230.782 255.62L231.447 255.974C244.077 262.831 256.119 278.962 259.888 292.745C268.555 324.442 247.821 349.266 218.11 357.648C213.958 358.578 211.429 358.839 207.155 359.24C182.323 344.518 182.636 316.324 205.15 299.524C210.097 295.833 216.037 293.115 220.274 288.501C228.664 279.365 230.099 266.961 229.859 255.109Z"/><path fill="#1E2122" transform="scale(1.24789 1.24789)" d="M595.191 231.591C607.282 233.268 613.448 240.305 613.692 252.449C613.871 261.399 613.706 270.375 613.675 279.328L613.535 342.854C632.282 342.935 658.321 344.324 675.665 339.825C674.34 344.555 673.376 347.109 670.848 351.255C668.114 354.805 665.273 357.883 660.73 358.842C650.069 361.093 637.887 360.139 627.013 360.055L595.419 360.056L595.191 231.591Z"/><path fill="#1E2122" transform="scale(1.24789 1.24789)" d="M474.946 265.656C477.368 265.37 480.358 265.494 482.84 265.512C481.19 271.869 479.689 278.505 478.155 284.909C470.278 285.162 463.029 286.579 457.232 292.449C447.863 301.935 449.609 315.472 449.609 327.621L449.603 359.162L432.5 359.094L432.488 349.75L432.472 267.507L449.566 267.473L449.493 285.85C456.761 274.439 460.309 268.033 474.946 265.656Z"/><path fill="#1E2122" transform="scale(1.24789 1.24789)" d="M394.031 267.509L411.968 267.496C412.742 297.285 412.155 329.356 412.122 359.332L394.04 359.277L394.031 267.509Z"/><path fill="#1E2122" transform="scale(1.24789 1.24789)" d="M401.504 228.945C408.539 227.309 415.559 231.716 417.145 238.761C418.731 245.807 414.275 252.796 407.218 254.332C400.232 255.852 393.328 251.45 391.758 244.475C390.189 237.5 394.541 230.565 401.504 228.945Z"/></svg>