<?xml version="1.0" encoding="utf-8" ?><svg xmlns="http://www.w3.org/2000/svg" xmlns:xlink="http://www.w3.org/1999/xlink" width="1024" height="1024" viewBox="0 0 1024 1024"><path fill="#FEFDFD" d="M0 0L1024 0L1024 1024L0 1024L0 0Z"/><path fill="#1E096E" d="M377.904 571.076C400.905 553.901 436.28 536.662 422.865 501.268C420.566 495.202 417.034 489.794 414.823 483.535C412.132 475.702 410.716 467.488 410.629 459.207C409.949 433.17 419.906 407.98 438.203 389.445C457.568 369.476 484.147 358.127 511.963 357.951C540.598 358.348 565.376 368.57 585.486 388.999C604.271 408.082 614.004 432.396 613.203 459.138C612.928 468.295 612.213 474.967 609.249 483.8C607.118 490.151 603.784 495.607 601.456 501.715C595.95 516.158 599.254 531.406 610.088 542.449C619.534 552.078 631.468 559.594 642.515 567.345C653.282 574.899 663.043 582.943 672.998 591.688C691.77 608.179 707.795 621.114 707.88 648.281C707.924 662.623 700.849 675.155 690.536 684.644C675.72 698.278 659.736 711.441 643.833 723.824C623.056 740.138 601.83 755.87 580.179 771.003C567.787 779.753 551.987 791.487 538.693 797.982C522.254 806.014 498.609 804.861 482.669 796.409C469.271 789.072 454.678 778.611 441.853 769.555C413.624 749.922 386.206 729.148 359.667 707.283C349.262 698.601 338.052 689.021 328.638 679.354C319.879 670.36 315.738 657.274 316.395 644.842C317.518 623.627 330.922 609.725 346.076 596.568C355.106 588.728 368.072 577.882 377.904 571.076Z"/><path fill="#FEFDFD" d="M377.904 571.076C400.905 553.901 436.28 536.662 422.865 501.268C420.566 495.202 417.034 489.794 414.823 483.535C412.132 475.702 410.716 467.488 410.629 459.207C409.949 433.17 419.906 407.98 438.203 389.445C457.568 369.476 484.147 358.127 511.963 357.951L512.124 423.659C525.107 424.749 534.79 428.954 543.25 438.963C558.17 456.614 554.248 483.323 536.387 497.334C533.05 499.951 530.35 501.464 526.723 503.539C541.973 558.201 560.968 613.158 576.592 667.878C569.967 673.251 562.125 678.588 555.084 683.559C540.973 693.552 526.647 703.238 512.117 712.612C490.358 698.84 466.996 682.279 446.273 666.965C442.29 665.071 432.43 656.754 428.52 653.715C409.476 638.915 389.303 623.574 382.53 599.194C380.847 593.134 379.487 586.943 378.838 580.665C378.478 577.832 378.811 573.563 377.904 571.076Z"/><path fill="#343DFD" d="M377.904 571.076C400.905 553.901 436.28 536.662 422.865 501.268C420.566 495.202 417.034 489.794 414.823 483.535C412.132 475.702 410.716 467.488 410.629 459.207C409.949 433.17 419.906 407.98 438.203 389.445C457.568 369.476 484.147 358.127 511.963 357.951L512.124 423.659C500.037 424.454 489.68 428.129 481.458 437.469C474.143 445.664 470.46 456.473 471.248 467.429C472.012 478.408 477.191 488.609 485.604 495.705C489.662 499.191 492.737 500.843 497.447 503.431L462.368 616.722L452.469 648.58C450.799 653.913 448.487 661.932 446.273 666.965C442.29 665.071 432.43 656.754 428.52 653.715C409.476 638.915 389.303 623.574 382.53 599.194C380.847 593.134 379.487 586.943 378.838 580.665C378.478 577.832 378.811 573.563 377.904 571.076Z"/><path fill="#1E096E" d="M512.039 220.312C533.209 223.05 561.472 240.025 581.734 248.402C603.265 257.304 624.791 266.13 647.461 272.174C680.223 280.066 701.263 283.064 723.379 311.638C746.034 340.908 743.361 364.849 743.368 399.207L743.467 462.222L743.314 547.403L743.447 582.637C743.449 587.211 743.65 594.807 743.373 599.188C743.488 604.289 743.402 609.394 743.43 614.495C743.431 614.732 743.466 615.742 743.01 615.534C742.352 615.234 741.919 614.076 741.677 613.513C722.929 583.018 690.299 552.525 658.507 535.825L658.618 445.775C658.667 429.448 660.516 394.153 654.739 380.197C651.011 371.333 644.525 363.906 636.243 359.02C630.767 355.791 625.034 353.906 618.914 352.294C582.001 342.572 547.209 327.539 512.007 313.014C512.686 303.326 512.439 288.13 512.454 278.239C512.515 258.929 512.377 239.619 512.039 220.312Z"/><path fill="#1E1681" d="M741.677 613.513C743.829 608.856 741.895 604.121 743.373 599.188C743.488 604.289 743.402 609.394 743.43 614.495C743.431 614.732 743.466 615.742 743.01 615.534C742.352 615.234 741.919 614.076 741.677 613.513Z"/><path fill="#343DFD" d="M281.045 616.266L281.175 443.286L281.029 389.914C281.01 379.04 280.392 365.651 282.05 354.986C286.487 326.444 305.596 299.789 330.994 286.169C343.625 279.395 356.927 277.429 370.487 273.91C383.968 270.503 397.26 266.384 410.306 261.571C423.884 256.479 437.295 250.953 450.52 245.002C466.784 237.582 495.303 223.354 512.039 220.312C512.377 239.619 512.515 258.929 512.454 278.239C512.439 288.13 512.686 303.326 512.007 313.014C504.34 315.526 493.842 320.061 486.452 323.373C456.446 336.822 425.984 346.587 394.544 355.833C382.493 359.378 368.658 375.291 366.774 387.8C364.413 403.481 365.42 422.873 365.432 439.265L365.505 535.558C338.238 552.284 314.251 570.973 294.367 596.468C289.514 602.691 285.281 609.599 281.045 616.266Z"/></svg>